<svg xmlns="http://www.w3.org/2000/svg" width="600" height="600" viewBox="0 0 600 600">
  <g id="sing" transform="translate(44.454 44)">
    <rect id="Rectangle_1" data-name="Rectangle 1" width="600" height="600" transform="translate(-44.454 -44)" fill="none"/>
    <g id="Group_2" data-name="Group 2">
      <g id="Group_1" data-name="Group 1">
        <path id="Path_1" data-name="Path 1" d="M467.076,117.026A86.64,86.64,0,0,0,320.44,193.044l-38.378,38.389-.032.032c-.045.045-.093.084-.138.131-.016.017-.03.036-.046.053l-83.653,83.642a49.7,49.7,0,0,0-.676,69.617c-4.951,2.8-9.633,3.764-15.032,4.867-9.426,1.926-21.157,4.324-34.248,17.414s-15.485,24.819-17.41,34.242c-1.74,8.517-3.114,15.246-11.945,24.075s-15.549,10.2-24.065,11.936c-9.428,1.926-21.161,4.322-34.255,17.421a10.04,10.04,0,0,0,14.2,14.195c8.825-8.83,15.554-10.2,24.071-11.943,9.426-1.924,21.156-4.321,34.246-17.41s15.494-24.829,17.419-34.256c1.739-8.514,3.112-15.24,11.936-24.062s15.553-10.2,24.07-11.941c8.135-1.662,17.987-3.681,28.948-12.616a49.808,49.808,0,0,0,53.055-11.213l122.04-122.04a87.5,87.5,0,0,0,15.54,1.4,86.674,86.674,0,0,0,60.987-147.952ZM254.314,371.418a29.647,29.647,0,0,1-41.923-41.93l76.769-76.759,41.922,41.922Zm90.965-90.964-41.922-41.922L327.2,214.688a86.7,86.7,0,0,0,41.816,42.034Zm107.6-55.106,0,0a66.561,66.561,0,0,1-100.691-86.5L409.933,196.6a10.04,10.04,0,0,0,14.2-14.2l-57.744-57.744a66.558,66.558,0,0,1,86.492,100.686Z"/>
      </g>
    </g>
    <g id="Group_4" data-name="Group 4">
      <g id="Group_3" data-name="Group 3">
        <path id="Path_2" data-name="Path 2" d="M225.662,2.31A10.039,10.039,0,0,0,217.393.175l-135.56,25.6a10.04,10.04,0,0,0-8.177,9.865V163.132a37.084,37.084,0,1,0,20.08,32.945V85.773L209.217,63.965v73.566A37.084,37.084,0,1,0,229.3,170.476V10.039A10.041,10.041,0,0,0,225.662,2.31ZM56.641,213.092a17.016,17.016,0,1,1,17.016-17.016A17.035,17.035,0,0,1,56.641,213.092Zm135.56-25.6a17.016,17.016,0,1,1,17.016-17.016A17.035,17.035,0,0,1,192.2,187.492Zm17.016-143.96L93.736,65.34V43.96L209.217,22.153V43.532Z"/>
      </g>
    </g>
    <g id="Group_6" data-name="Group 6">
      <g id="Group_5" data-name="Group 5">
        <path id="Path_3" data-name="Path 3" d="M459.927,285.335a10.039,10.039,0,0,0-10.039,10.039V422.866a37.084,37.084,0,1,0,20.079,32.945V295.374A10.041,10.041,0,0,0,459.927,285.335ZM432.87,472.827a17.016,17.016,0,1,1,17.016-17.016A17.035,17.035,0,0,1,432.87,472.827Z"/>
      </g>
    </g>
    <g id="Group_8" data-name="Group 8">
      <g id="Group_7" data-name="Group 7">
        <path id="Path_4" data-name="Path 4" d="M438.212,200.533c-12.919,0-12.941,20.078,0,20.078C451.131,220.612,451.152,200.533,438.212,200.533Z"/>
      </g>
    </g>
  </g>
</svg>
