<svg xmlns="http://www.w3.org/2000/svg" width="600" height="600" viewBox="0 0 600 600">
  <g id="Spaguetti" transform="translate(-1009 -229)">
    <rect id="Boundary" width="600" height="600" transform="translate(1009 229)" fill="none"/>
    <g id="Removed" transform="translate(1062 297)">
      <path id="Fork" d="M170,120H130V100h40a29.742,29.742,0,0,0,11.54-2.317A30.152,30.152,0,0,0,197.6,81.8,30.026,30.026,0,0,0,170,40H130V20h40a49.685,49.685,0,0,1,11.586,1.373A50.285,50.285,0,0,1,209.981,40H446a30,30,0,0,1,0,60H209.981a50.307,50.307,0,0,1-28.4,18.627A49.683,49.683,0,0,1,170,120Zm48.984-60a49.759,49.759,0,0,1,0,20H446a10,10,0,0,0,0-20ZM30,120H10a10,10,0,0,1,0-20H30v20ZM150,80H130V60h20a10,10,0,1,1,0,20ZM30,80H10a10,10,0,1,1,0-20H30V80Zm0-40H10a10,10,0,0,1,0-20H30V40Z" transform="translate(36)"/>
      <path id="Path_1" data-name="Path 1" d="M116,160a10,10,0,1,0-10-10A10,10,0,0,0,116,160Zm0,0"/>
      <path id="Path_2" data-name="Path 2" d="M166,10a10,10,0,0,0-20,0V20H126V10a10,10,0,0,0-20,0V20H86V10a10,10,0,0,0-20,0V287.156L166,270.88ZM106,40v70a10,10,0,0,0,20,0V40h20V273.727H126V190a10,10,0,0,0-20,0v83.727H86V40Z"/>
    </g>
    <g id="Plate" transform="translate(1043 301)">
      <path id="Path_2-2" data-name="Path 2" d="M46,340H10A10,10,0,0,0,0,350a70.08,70.08,0,0,0,70,70H80v10a30.033,30.033,0,0,0,30,30H402a30.033,30.033,0,0,0,30-30V420h10a70.08,70.08,0,0,0,70-70,10,10,0,0,0-10-10H466a79.964,79.964,0,0,0-114.273-72.266A119.474,119.474,0,0,0,256,220c-34.871,0-73.02,21.984-95.645,47.734,0,0-19.235-8.5-34.355-7.734C88.079,262.4,47.581,286.428,46,340Zm60,0a20.024,20.024,0,0,1,20-20,19.788,19.788,0,0,1,11.152,3.406A120.171,120.171,0,0,0,136,340Zm20-60a59.307,59.307,0,0,1,23.473,4.8,118.637,118.637,0,0,0-7.715,18.449A39.963,39.963,0,0,0,86,340H66A60.058,60.058,0,0,1,126,280ZM412,430a10.009,10.009,0,0,1-10,10H110a10.009,10.009,0,0,1-10-10V420H412Zm79-70a50.092,50.092,0,0,1-49,40H70a50.089,50.089,0,0,1-49-40ZM296,340a40,40,0,0,0-80,0H196a60,60,0,0,1,120,0Zm-60,0a20,20,0,0,1,40,0Zm138.848-16.594A19.788,19.788,0,0,1,386,320a20.024,20.024,0,0,1,20,20H376A120.128,120.128,0,0,0,374.848,323.406ZM446,340H426a39.963,39.963,0,0,0-55.758-36.746,118.582,118.582,0,0,0-7.719-18.457A59.974,59.974,0,0,1,446,340ZM256,240A100.069,100.069,0,0,1,356,340H336a80,80,0,0,0-160,0H156A100.067,100.067,0,0,1,256,240Zm0,0"/>
    </g>
  </g>
</svg>
